<svg xmlns="http://www.w3.org/2000/svg" xmlns:xlink="http://www.w3.org/1999/xlink" width="272" zoomAndPan="magnify" viewBox="0 0 204 201.000001" height="268" preserveAspectRatio="xMidYMid meet" version="1.0"><defs><g/><clipPath id="3a6edff039"><path d="M 64.566406 0 L 104.789062 0 L 104.789062 40.535156 L 64.566406 40.535156 Z M 64.566406 0 " clip-rule="nonzero"/></clipPath><clipPath id="64d19b0421"><path d="M 83.285156 0.0976562 C 109.148438 -2.214844 112.710938 37.230469 88.320312 40.238281 C 59.5 43.800781 56.199219 2.515625 83.285156 0.0976562 " clip-rule="nonzero"/></clipPath><clipPath id="e1c0e4ce7b"><path d="M 0.566406 0 L 40.789062 0 L 40.789062 40.535156 L 0.566406 40.535156 Z M 0.566406 0 " clip-rule="nonzero"/></clipPath><clipPath id="e7bab30bf7"><path d="M 19.285156 0.0976562 C 45.148438 -2.214844 48.710938 37.230469 24.320312 40.238281 C -4.5 43.800781 -7.800781 2.515625 19.285156 0.0976562 " clip-rule="nonzero"/></clipPath><clipPath id="3a0304424b"><rect x="0" width="41" y="0" height="41"/></clipPath><clipPath id="01c0042d9b"><path d="M 0.503906 67.796875 L 191 67.796875 L 191 137 L 0.503906 137 Z M 0.503906 67.796875 " clip-rule="nonzero"/></clipPath><clipPath id="cbee38f4d6"><path d="M 9.566406 68.328125 C 4.675781 68.328125 0.648438 72.230469 0.550781 77.125 C 0.289062 90.125 1.003906 102.976562 6.921875 113.289062 C 21.683594 138.976562 55.15625 143.460938 78.394531 126.214844 C 79.941406 125.066406 82.910156 121.453125 84.699219 121.460938 C 86.097656 121.460938 93.449219 127.214844 95.625 128.417969 C 120.367188 142.058594 157.472656 139.203125 178.136719 119.238281 C 182.332031 115.1875 191.121094 104.65625 190.925781 98.746094 C 190.898438 97.828125 190.414062 96.28125 189.964844 95.476562 C 188.585938 93.007812 175.808594 85.722656 172.5625 84.042969 C 164.171875 79.699219 166.359375 81.453125 162.671875 87.8125 C 146.867188 115.074219 105.6875 110.191406 102.804688 78.8125 C 102.5 75.453125 104.292969 69.3125 99.878906 68.632812 C 92.230469 67.460938 77.828125 67.566406 70.15625 68.738281 C 65.730469 69.414062 64.058594 71.320312 63.519531 75.730469 C 62.820312 81.476562 63.566406 88.535156 62.9375 94.535156 C 61.707031 106.328125 42.109375 106.828125 40.429688 94.492188 C 39.730469 89.339844 39.804688 83.035156 40.011719 76.65625 C 40.171875 72.101562 36.527344 68.328125 31.976562 68.328125 Z M 9.566406 68.328125 " clip-rule="nonzero"/></clipPath><clipPath id="93592de226"><path d="M 0.503906 0.796875 L 191 0.796875 L 191 69.839844 L 0.503906 69.839844 Z M 0.503906 0.796875 " clip-rule="nonzero"/></clipPath><clipPath id="71d0711e04"><path d="M 9.566406 1.328125 C 4.675781 1.328125 0.648438 5.230469 0.550781 10.125 C 0.289062 23.125 1.003906 35.976562 6.921875 46.289062 C 21.683594 71.976562 55.15625 76.460938 78.394531 59.214844 C 79.941406 58.066406 82.910156 54.453125 84.699219 54.460938 C 86.097656 54.460938 93.449219 60.214844 95.625 61.417969 C 120.367188 75.058594 157.472656 72.203125 178.136719 52.238281 C 182.332031 48.1875 191.121094 37.65625 190.925781 31.746094 C 190.898438 30.828125 190.414062 29.28125 189.964844 28.476562 C 188.585938 26.007812 175.808594 18.722656 172.5625 17.042969 C 164.171875 12.699219 166.359375 14.453125 162.671875 20.8125 C 146.867188 48.074219 105.6875 43.191406 102.804688 11.8125 C 102.5 8.453125 104.292969 2.3125 99.878906 1.632812 C 92.230469 0.460938 77.828125 0.566406 70.15625 1.738281 C 65.730469 2.414062 64.058594 4.320312 63.519531 8.730469 C 62.820312 14.476562 63.566406 21.535156 62.9375 27.535156 C 61.707031 39.328125 42.109375 39.828125 40.429688 27.492188 C 39.730469 22.339844 39.804688 16.035156 40.011719 9.65625 C 40.171875 5.101562 36.527344 1.328125 31.976562 1.328125 Z M 9.566406 1.328125 " clip-rule="nonzero"/></clipPath><clipPath id="0147185c17"><rect x="0" width="191" y="0" height="70"/></clipPath><clipPath id="79c0a35bf6"><path d="M 150.136719 17.414062 L 190.886719 17.414062 L 190.886719 57.851562 L 150.136719 57.851562 Z M 150.136719 17.414062 " clip-rule="nonzero"/></clipPath><clipPath id="6e8f5a6fe5"><path d="M 166.128906 17.894531 C 191.527344 13.953125 200.003906 47.109375 178.683594 56.109375 C 160.105469 63.953125 142.652344 43.714844 153.457031 26.722656 C 156.046875 22.65625 161.324219 18.648438 166.128906 17.894531 " clip-rule="nonzero"/></clipPath><clipPath id="3d6717e56e"><path d="M 0.136719 0.433594 L 40.886719 0.433594 L 40.886719 40.851562 L 0.136719 40.851562 Z M 0.136719 0.433594 " clip-rule="nonzero"/></clipPath><clipPath id="6f0a509765"><path d="M 16.128906 0.894531 C 41.527344 -3.046875 50.003906 30.109375 28.683594 39.109375 C 10.105469 46.953125 -7.347656 26.714844 3.457031 9.722656 C 6.046875 5.65625 11.324219 1.648438 16.128906 0.894531 " clip-rule="nonzero"/></clipPath><clipPath id="c9789c8d79"><rect x="0" width="41" y="0" height="41"/></clipPath><clipPath id="1c309b6f39"><path d="M 0.503906 148.109375 L 203.492188 148.109375 L 203.492188 188.488281 L 0.503906 188.488281 Z M 0.503906 148.109375 " clip-rule="nonzero"/></clipPath><clipPath id="31c5e0c957"><path d="M 20.695312 148.109375 L 183.214844 148.109375 C 188.570312 148.109375 193.703125 150.234375 197.492188 154.023438 C 201.277344 157.808594 203.40625 162.945312 203.40625 168.300781 C 203.40625 173.652344 201.277344 178.789062 197.492188 182.578125 C 193.703125 186.363281 188.570312 188.488281 183.214844 188.488281 L 20.695312 188.488281 C 15.339844 188.488281 10.207031 186.363281 6.417969 182.578125 C 2.632812 178.789062 0.503906 173.652344 0.503906 168.300781 C 0.503906 162.945312 2.632812 157.808594 6.417969 154.023438 C 10.207031 150.234375 15.339844 148.109375 20.695312 148.109375 Z M 20.695312 148.109375 " clip-rule="nonzero"/></clipPath><clipPath id="5234e525e2"><path d="M 0.503906 0.109375 L 203.492188 0.109375 L 203.492188 40.488281 L 0.503906 40.488281 Z M 0.503906 0.109375 " clip-rule="nonzero"/></clipPath><clipPath id="1684dc8401"><path d="M 20.695312 0.109375 L 183.214844 0.109375 C 188.570312 0.109375 193.703125 2.234375 197.492188 6.023438 C 201.277344 9.808594 203.40625 14.945312 203.40625 20.300781 C 203.40625 25.652344 201.277344 30.789062 197.492188 34.578125 C 193.703125 38.363281 188.570312 40.488281 183.214844 40.488281 L 20.695312 40.488281 C 15.339844 40.488281 10.207031 38.363281 6.417969 34.578125 C 2.632812 30.789062 0.503906 25.652344 0.503906 20.300781 C 0.503906 14.945312 2.632812 9.808594 6.417969 6.023438 C 10.207031 2.234375 15.339844 0.109375 20.695312 0.109375 Z M 20.695312 0.109375 " clip-rule="nonzero"/></clipPath><clipPath id="7f0c4614ae"><rect x="0" width="204" y="0" height="41"/></clipPath></defs><g clip-path="url(#3a6edff039)"><g clip-path="url(#64d19b0421)"><g transform="matrix(1, 0, 0, 1, 64, -0.00000000000000443)"><g clip-path="url(#3a0304424b)"><g clip-path="url(#e1c0e4ce7b)"><g clip-path="url(#e7bab30bf7)"><path fill="#0147ba" d="M 0.722656 0 L 40.789062 0 L 40.789062 40.535156 L 0.722656 40.535156 Z M 0.722656 0 " fill-opacity="1" fill-rule="nonzero"/></g></g></g></g></g></g><g clip-path="url(#01c0042d9b)"><g clip-path="url(#cbee38f4d6)"><g transform="matrix(1, 0, 0, 1, 0, 67)"><g clip-path="url(#0147185c17)"><g clip-path="url(#93592de226)"><g clip-path="url(#71d0711e04)"><path fill="#172554" d="M 0.503906 0.796875 L 190.871094 0.796875 L 190.871094 69.824219 L 0.503906 69.824219 Z M 0.503906 0.796875 " fill-opacity="1" fill-rule="nonzero"/></g></g></g></g></g></g><g clip-path="url(#79c0a35bf6)"><g clip-path="url(#6e8f5a6fe5)"><g transform="matrix(1, 0, 0, 1, 150, 17)"><g clip-path="url(#c9789c8d79)"><g clip-path="url(#3d6717e56e)"><g clip-path="url(#6f0a509765)"><path fill="#0147ba" d="M 0.136719 0.574219 L 40.730469 0.574219 L 40.730469 40.851562 L 0.136719 40.851562 Z M 0.136719 0.574219 " fill-opacity="1" fill-rule="nonzero"/></g></g></g></g></g></g><g clip-path="url(#1c309b6f39)"><g clip-path="url(#31c5e0c957)"><g transform="matrix(1, 0, 0, 1, 0, 148)"><g clip-path="url(#7f0c4614ae)"><g clip-path="url(#5234e525e2)"><g clip-path="url(#1684dc8401)"><path fill="#0147ba" d="M 0.503906 0.109375 L 203.359375 0.109375 L 203.359375 40.488281 L 0.503906 40.488281 Z M 0.503906 0.109375 " fill-opacity="1" fill-rule="nonzero"/></g></g></g></g></g></g><g fill="#ffffff" fill-opacity="1"><g transform="translate(49.291381, 178.281746)"><g><path d="M 13.90625 0.421875 C 12.175781 0.421875 10.566406 0.148438 9.078125 -0.390625 C 7.585938 -0.941406 6.28125 -1.726562 5.15625 -2.75 C 4.039062 -3.78125 3.164062 -5.015625 2.53125 -6.453125 C 1.894531 -7.890625 1.578125 -9.5 1.578125 -11.28125 C 1.578125 -13.71875 2.109375 -15.804688 3.171875 -17.546875 C 4.234375 -19.285156 5.675781 -20.625 7.5 -21.5625 C 9.332031 -22.5 11.390625 -22.96875 13.671875 -22.96875 C 15.128906 -22.96875 16.585938 -22.738281 18.046875 -22.28125 C 19.515625 -21.832031 20.957031 -21.125 22.375 -20.15625 L 20.03125 -15.96875 C 17.988281 -17.425781 15.957031 -18.15625 13.9375 -18.15625 C 12.6875 -18.15625 11.554688 -17.882812 10.546875 -17.34375 C 9.535156 -16.8125 8.734375 -16.035156 8.140625 -15.015625 C 7.546875 -13.992188 7.25 -12.757812 7.25 -11.3125 C 7.25 -9.851562 7.546875 -8.613281 8.140625 -7.59375 C 8.734375 -6.570312 9.539062 -5.789062 10.5625 -5.25 C 11.582031 -4.71875 12.726562 -4.453125 14 -4.453125 C 15.007812 -4.453125 16.019531 -4.628906 17.03125 -4.984375 C 18.039062 -5.335938 19.070312 -5.878906 20.125 -6.609375 L 22.453125 -2.421875 C 21.066406 -1.453125 19.660156 -0.734375 18.234375 -0.265625 C 16.804688 0.191406 15.363281 0.421875 13.90625 0.421875 Z M 13.90625 0.421875 "/></g></g></g><g fill="#ffffff" fill-opacity="1"><g transform="translate(72.634535, 178.281746)"><g><path d="M 7.484375 0 L 1.90625 0 L 1.90625 -12.90625 C 1.90625 -14.945312 2.34375 -16.722656 3.21875 -18.234375 C 4.101562 -19.753906 5.332031 -20.925781 6.90625 -21.75 C 8.488281 -22.582031 10.304688 -23 12.359375 -23 C 14.421875 -23 16.234375 -22.582031 17.796875 -21.75 C 19.367188 -20.925781 20.59375 -19.753906 21.46875 -18.234375 C 22.351562 -16.722656 22.796875 -14.945312 22.796875 -12.90625 L 22.796875 0 L 17.3125 0 L 17.3125 -5.671875 L 7.484375 -5.671875 Z M 7.484375 -12.90625 L 7.484375 -10.09375 L 17.3125 -10.09375 L 17.3125 -12.90625 C 17.3125 -14.5625 16.847656 -15.851562 15.921875 -16.78125 C 15.003906 -17.71875 13.816406 -18.1875 12.359375 -18.1875 C 10.910156 -18.1875 9.734375 -17.71875 8.828125 -16.78125 C 7.929688 -15.851562 7.484375 -14.5625 7.484375 -12.90625 Z M 7.484375 -12.90625 "/></g></g></g><g fill="#ffffff" fill-opacity="1"><g transform="translate(97.331848, 178.281746)"><g><path d="M 16.640625 -7.359375 L 22.640625 0 L 16.453125 0 L 11.1875 -6.359375 L 7.9375 -6.359375 L 7.9375 0 L 2.296875 0 L 2.296875 -13.34375 C 2.296875 -15.09375 2.644531 -16.679688 3.34375 -18.109375 C 4.039062 -19.535156 5.097656 -20.671875 6.515625 -21.515625 C 7.929688 -22.367188 9.71875 -22.796875 11.875 -22.796875 C 13.957031 -22.796875 15.707031 -22.40625 17.125 -21.625 C 18.539062 -20.84375 19.609375 -19.832031 20.328125 -18.59375 C 21.046875 -17.351562 21.40625 -16.046875 21.40625 -14.671875 C 21.40625 -12.910156 20.992188 -11.410156 20.171875 -10.171875 C 19.347656 -8.941406 18.171875 -8.003906 16.640625 -7.359375 Z M 7.9375 -13.484375 L 7.9375 -10.96875 L 11.734375 -10.96875 C 13.066406 -10.96875 14.101562 -11.296875 14.84375 -11.953125 C 15.59375 -12.609375 15.96875 -13.460938 15.96875 -14.515625 C 15.96875 -15.097656 15.8125 -15.671875 15.5 -16.234375 C 15.1875 -16.804688 14.726562 -17.273438 14.125 -17.640625 C 13.519531 -18.003906 12.769531 -18.1875 11.875 -18.1875 C 10.8125 -18.1875 9.992188 -17.9375 9.421875 -17.4375 C 8.859375 -16.945312 8.46875 -16.335938 8.25 -15.609375 C 8.039062 -14.878906 7.9375 -14.171875 7.9375 -13.484375 Z M 7.9375 -13.484375 "/></g></g></g><g fill="#ffffff" fill-opacity="1"><g transform="translate(120.578277, 178.281746)"><g><path d="M 10.609375 0.421875 C 8.867188 0.421875 7.179688 0.253906 5.546875 -0.078125 C 3.910156 -0.410156 2.445312 -0.910156 1.15625 -1.578125 L 1.609375 -6.28125 C 2.429688 -5.875 3.375 -5.515625 4.4375 -5.203125 C 5.5 -4.890625 6.570312 -4.648438 7.65625 -4.484375 C 8.738281 -4.328125 9.722656 -4.25 10.609375 -4.25 C 11.378906 -4.25 12.082031 -4.300781 12.71875 -4.40625 C 13.351562 -4.519531 13.863281 -4.738281 14.25 -5.0625 C 14.632812 -5.382812 14.828125 -5.847656 14.828125 -6.453125 C 14.828125 -7.078125 14.65625 -7.554688 14.3125 -7.890625 C 13.96875 -8.222656 13.457031 -8.488281 12.78125 -8.6875 C 12.101562 -8.894531 11.25 -9.09375 10.21875 -9.28125 C 8.332031 -9.601562 6.734375 -10.015625 5.421875 -10.515625 C 4.109375 -11.023438 3.117188 -11.71875 2.453125 -12.59375 C 1.785156 -13.46875 1.453125 -14.59375 1.453125 -15.96875 C 1.453125 -17.507812 1.894531 -18.800781 2.78125 -19.84375 C 3.675781 -20.882812 4.859375 -21.664062 6.328125 -22.1875 C 7.804688 -22.707031 9.394531 -22.96875 11.09375 -22.96875 C 12.53125 -22.96875 13.941406 -22.832031 15.328125 -22.5625 C 16.722656 -22.289062 18.050781 -21.863281 19.3125 -21.28125 L 18.640625 -16.578125 C 17.222656 -17.179688 15.894531 -17.617188 14.65625 -17.890625 C 13.414062 -18.171875 12.226562 -18.3125 11.09375 -18.3125 C 10 -18.3125 9.101562 -18.175781 8.40625 -17.90625 C 7.707031 -17.644531 7.359375 -17.070312 7.359375 -16.1875 C 7.359375 -15.476562 7.664062 -14.96875 8.28125 -14.65625 C 8.90625 -14.34375 10.023438 -14.035156 11.640625 -13.734375 C 13.578125 -13.410156 15.222656 -12.96875 16.578125 -12.40625 C 17.929688 -11.851562 18.957031 -11.113281 19.65625 -10.1875 C 20.351562 -9.257812 20.703125 -8.085938 20.703125 -6.671875 C 20.703125 -5.109375 20.242188 -3.796875 19.328125 -2.734375 C 18.421875 -1.679688 17.203125 -0.890625 15.671875 -0.359375 C 14.148438 0.160156 12.460938 0.421875 10.609375 0.421875 Z M 10.609375 0.421875 "/></g></g></g></svg>