<?xml version="1.0" encoding="utf-8"?>
<svg xmlns="http://www.w3.org/2000/svg" viewBox="119.1854 316.931 191.2227 137.4375" width="191.223px" height="137.438px">
  <defs>
    <clipPath id="587b908451">
      <path d="M 837.027344 375.433594 L 877.429688 375.433594 L 877.429688 416.308594 L 837.027344 416.308594 Z M 837.027344 375.433594 " clip-rule="nonzero"/>
    </clipPath>
    <clipPath id="effe39be59">
      <path d="M 855.828125 375.691406 C 881.8125 373.367188 885.386719 412.992188 860.890625 416.011719 C 831.9375 419.589844 828.625 378.117188 855.828125 375.691406 " clip-rule="nonzero"/>
    </clipPath>
    <clipPath id="c9957a9c02">
      <rect x="0" width="41" y="0" height="42"/>
    </clipPath>
    <clipPath id="8224d724b3">
      <path d="M 0.0273438 0.558594 L 40.429688 0.558594 L 40.429688 41.308594 L 0.0273438 41.308594 Z M 0.0273438 0.558594 " clip-rule="nonzero"/>
    </clipPath>
    <clipPath id="50524bf800">
      <path d="M 18.828125 0.691406 C 44.8125 -1.632812 48.386719 37.992188 23.890625 41.011719 C -5.0625 44.589844 -8.375 3.117188 18.828125 0.691406 " clip-rule="nonzero"/>
    </clipPath>
    <clipPath id="a913f5b044">
      <path d="M 772.40625 443.691406 L 964 443.691406 L 964 513.300781 L 772.40625 513.300781 Z M 772.40625 443.691406 " clip-rule="nonzero"/>
    </clipPath>
    <clipPath id="58691f9e6f">
      <path d="M 781.78125 444.226562 C 776.871094 444.226562 772.820312 448.144531 772.722656 453.0625 C 772.460938 466.121094 773.179688 479.03125 779.125 489.390625 C 793.953125 515.191406 827.574219 519.699219 850.917969 502.375 C 852.46875 501.21875 855.453125 497.589844 857.253906 497.597656 C 858.65625 497.597656 866.039062 503.378906 868.226562 504.585938 C 893.078125 518.289062 930.347656 515.417969 951.105469 495.363281 C 955.320312 491.292969 964.152344 480.71875 963.957031 474.78125 C 963.925781 473.859375 963.4375 472.304688 962.988281 471.496094 C 961.601562 469.015625 948.769531 461.699219 945.507812 460.011719 C 937.082031 455.648438 939.277344 457.410156 935.574219 463.796875 C 919.695312 491.183594 878.332031 486.28125 875.4375 454.757812 C 875.132812 451.382812 876.929688 445.214844 872.5 444.53125 C 864.816406 443.355469 850.347656 443.460938 842.640625 444.636719 C 838.195312 445.320312 836.519531 447.230469 835.976562 451.660156 C 835.273438 457.433594 836.023438 464.523438 835.394531 470.550781 C 834.15625 482.394531 814.472656 482.898438 812.785156 470.507812 C 812.078125 465.335938 812.15625 459 812.363281 452.589844 C 812.523438 448.019531 808.863281 444.226562 804.292969 444.226562 Z M 781.78125 444.226562 " clip-rule="nonzero"/>
    </clipPath>
    <clipPath id="019b07cd1d">
      <rect x="0" width="192" y="0" height="71"/>
    </clipPath>
    <clipPath id="33130b410f">
      <path d="M 0.664062 0.691406 L 192 0.691406 L 192 70.25 L 0.664062 70.25 Z M 0.664062 0.691406 " clip-rule="nonzero"/>
    </clipPath>
    <clipPath id="910075d618">
      <path d="M 9.78125 1.226562 C 4.871094 1.226562 0.820312 5.144531 0.722656 10.0625 C 0.460938 23.121094 1.179688 36.03125 7.125 46.390625 C 21.953125 72.191406 55.574219 76.699219 78.917969 59.375 C 80.46875 58.21875 83.453125 54.589844 85.253906 54.597656 C 86.65625 54.597656 94.039062 60.378906 96.226562 61.585938 C 121.078125 75.289062 158.347656 72.417969 179.105469 52.363281 C 183.320312 48.292969 192.152344 37.71875 191.957031 31.78125 C 191.925781 30.859375 191.4375 29.304688 190.988281 28.496094 C 189.601562 26.015625 176.769531 18.699219 173.507812 17.011719 C 165.082031 12.648438 167.277344 14.410156 163.574219 20.796875 C 147.695312 48.183594 106.332031 43.28125 103.4375 11.757812 C 103.132812 8.382812 104.929688 2.214844 100.5 1.53125 C 92.816406 0.355469 78.347656 0.460938 70.640625 1.636719 C 66.195312 2.320312 64.519531 4.230469 63.976562 8.660156 C 63.273438 14.433594 64.023438 21.523438 63.394531 27.550781 C 62.15625 39.394531 42.472656 39.898438 40.785156 27.507812 C 40.078125 22.335938 40.15625 16 40.363281 9.589844 C 40.523438 5.019531 36.863281 1.226562 32.292969 1.226562 Z M 9.78125 1.226562 " clip-rule="nonzero"/>
    </clipPath>
    <clipPath id="23c888ff64">
      <path d="M 922.980469 393.085938 L 963.914062 393.085938 L 963.914062 433.703125 L 922.980469 433.703125 Z M 922.980469 393.085938 " clip-rule="nonzero"/>
    </clipPath>
    <clipPath id="c11b47a4bb">
      <path d="M 939.046875 393.566406 C 964.558594 389.609375 973.074219 422.914062 951.65625 431.953125 C 932.996094 439.832031 915.464844 419.503906 926.316406 402.433594 C 928.917969 398.347656 934.21875 394.324219 939.046875 393.566406 " clip-rule="nonzero"/>
    </clipPath>
    <clipPath id="b7eabb79aa">
      <rect x="0" width="42" y="0" height="41"/>
    </clipPath>
    <clipPath id="321f7c540e">
      <path d="M 0.980469 0.0859375 L 41.914062 0.0859375 L 41.914062 40.703125 L 0.980469 40.703125 Z M 0.980469 0.0859375 " clip-rule="nonzero"/>
    </clipPath>
    <clipPath id="7c1fcf7505">
      <path d="M 17.046875 0.566406 C 42.558594 -3.390625 51.074219 29.914062 29.65625 38.953125 C 10.996094 46.832031 -6.535156 26.503906 4.316406 9.433594 C 6.917969 5.347656 12.21875 1.324219 17.046875 0.566406 " clip-rule="nonzero"/>
    </clipPath>
  </defs>
  <g id="object-3" transform="matrix(0.9999999999999999, 0, 0, 0.9999999999999999, -35.052636446450805, 15.024291575823668)">
    <g clip-path="url(#587b908451)" transform="matrix(1, 0, 0, 1, -618.441611, -73.687083)" id="object-0">
      <g clip-path="url(#effe39be59)">
        <g transform="matrix(1, 0, 0, 1, 837, 375)">
          <g clip-path="url(#c9957a9c02)">
            <g clip-path="url(#8224d724b3)">
              <g clip-path="url(#50524bf800)">
                <path fill="#0147ba" d="M 0.1875 0.59375 L 40.429688 0.59375 L 40.429688 41.308594 L 0.1875 41.308594 Z M 0.1875 0.59375 " fill-opacity="1" fill-rule="nonzero"/>
              </g>
            </g>
          </g>
        </g>
      </g>
    </g>
    <g clip-path="url(#a913f5b044)" transform="matrix(1, 0, 0, 1, -618.441611, -73.687083)" id="object-1">
      <g clip-path="url(#58691f9e6f)">
        <g transform="matrix(1, 0, 0, 1, 772, 443)">
          <g clip-path="url(#019b07cd1d)">
            <g clip-path="url(#33130b410f)">
              <g clip-path="url(#910075d618)">
                <path fill="#172554" d="M 0.679688 0.691406 L 191.902344 0.691406 L 191.902344 70.03125 L 0.679688 70.03125 Z M 0.679688 0.691406 " fill-opacity="1" fill-rule="nonzero"/>
              </g>
            </g>
          </g>
        </g>
      </g>
    </g>
    <g clip-path="url(#23c888ff64)" transform="matrix(1, 0, 0, 1, -618.441611, -73.687083)" id="object-2">
      <g clip-path="url(#c11b47a4bb)">
        <g transform="matrix(1, 0, 0, 1, 922, 393)">
          <g clip-path="url(#b7eabb79aa)">
            <g clip-path="url(#321f7c540e)">
              <g clip-path="url(#7c1fcf7505)">
                <path fill="#0147ba" d="M 0.980469 0.242188 L 41.757812 0.242188 L 41.757812 40.703125 L 0.980469 40.703125 Z M 0.980469 0.242188 " fill-opacity="1" fill-rule="nonzero"/>
              </g>
            </g>
          </g>
        </g>
      </g>
    </g>
  </g>
</svg>